<svg xmlns="http://www.w3.org/2000/svg" width="111" height="56" viewBox="0 0 111 56">
    <g fill="none" fill-rule="evenodd">
        <path fill="#FF805F" d="M0 0h111v56H0z"/>
        <g fill="#005771" fill-rule="nonzero">
            <path d="M55.514 16.282c-.81.41-1.458 1.047-1.653 1.635-.21.613-.194 1.443.033 2.03.227.589.867 1.298 1.417 1.572.495.25 1.37.338 1.985.185 1.701-.403 2.665-2.377 1.928-3.972-.47-1.023-1.288-1.547-2.657-1.708-.405-.04-.494-.024-1.053.258zM44.748 28.673v11.964h4.942V16.71H44.749zM18.113 16.927c.68.805 9.624 11.714 9.624 11.746 0 .049-8.554 10.506-9.34 11.425l-.397.459h3.07l3.062-.008 4.82-5.954c2.649-3.28 4.828-5.994 4.836-6.027.008-.032-2.138-2.682-4.78-5.897l-4.803-5.841-3.11-.024c-2.957-.016-3.103-.008-2.982.12zM35.19 28.673v11.884h5.103V16.79H35.19zM82.14 23.444c-2.948.629-5.451 3.159-6.293 6.357-.17.637-.195.894-.187 2.175 0 1.354.025 1.515.251 2.377.462 1.74 1.078 3.013 1.96 4.06 1.548 1.846 3.962 2.796 6.457 2.547 2.033-.21 3.734-1.032 4.471-2.16l.3-.459.024 1.144.025 1.152H94V23.718h-4.86v2.192l-.665-.62c-1.166-1.088-2.05-1.572-3.402-1.846-.778-.16-2.179-.16-2.932 0zm3.703 4.504c1.58.33 2.778 1.442 3.248 3.013.081.274.13.742.13 1.241 0 1.321-.462 2.401-1.386 3.239-.575.524-1.126.814-1.903 1.007-1.507.387-2.86.008-4.01-1.128-1.636-1.611-1.806-4.294-.373-5.857.503-.54.819-.75 1.92-1.249.964-.427 1.377-.475 2.374-.266zM72.469 23.485c-1.32.169-2.204.733-3.516 2.24l-.446.523-.064-1.224-.057-1.225H63.46v16.758h1.442c.785 0 1.895.024 2.462.056l1.02.049-.007-3.497c-.016-3.746.024-4.262.437-5.591.373-1.217 1.086-2.192 1.92-2.643.778-.419 2.05-.604 2.981-.443l.332.064.049-2.521c.024-1.378.032-2.522.032-2.522-.08-.065-1.272-.08-1.66-.024zM54.129 32.113c-.016 4.625-.025 8.412-.025 8.412 0 .008 1.118.032 2.495.056l2.487.048V23.72h-4.933l-.024 8.394z"/>
        </g>
    </g>
</svg>
