<svg id="Layer_1" data-name="Layer 1" xmlns="http://www.w3.org/2000/svg" viewBox="0 0 1920 1080"><defs><style>.cls-1{fill:#fff;}</style></defs><title>K_L_NEG_RGB</title><path class="cls-1" d="M1483.8,466.51v36.88c-18.33-27.43-51.18-40.88-86.17-40.88-71.67,0-126.1,60.89-126.1,139.57,0,79.22,54.43,139.57,126.1,139.57,35,0,67.9-15.09,86.22-42l0,.07v38h77.41V466.51Zm-67,205.83c-39,0-69.7-31.29-69.7-70.26s30.73-70.25,69.7-70.25,69.7,31.28,69.7,70.25S1455.81,672.34,1416.84,672.34Z"/><path class="cls-1" d="M1252.55,462.12a57.07,57.07,0,0,0-13.72-1.64c-35.13,0-63.67,19.21-77.94,50.49V466.51h-79V737.65h79.58V627.33c0-53.24,26.35-86.17,70.81-86.17a157.14,157.14,0,0,1,20.3,1.47Z"/><path class="cls-1" d="M1020,388c0-25.25-20.86-46.65-46.65-46.65S926.7,362.78,926.7,388s20.86,46.65,46.66,46.65S1020,413.28,1020,388"/><rect class="cls-1" x="933.29" y="466.51" width="80.13" height="271.13"/><rect class="cls-1" x="782.91" y="353.45" width="80.13" height="384.2"/><polygon class="cls-1" points="358.94 354.19 514.83 545.68 358.94 737.16 456.94 737.16 606.65 545.68 456.94 354.19 358.94 354.19"/><rect class="cls-1" x="629.55" y="354.19" width="81.07" height="382.97"/></svg>