<?xml version="1.0" encoding="utf-8"?>
<!-- Generator: Adobe Illustrator 22.0.1, SVG Export Plug-In . SVG Version: 6.00 Build 0)  -->
<svg version="1.1" id="Layer_1" xmlns="http://www.w3.org/2000/svg" xmlns:xlink="http://www.w3.org/1999/xlink" x="0px" y="0px"
	 viewBox="0 0 134 134" style="enable-background:new 0 0 134 134;" xml:space="preserve">
<style type="text/css">
	.st0{fill:#F08569;}
	.st1{fill:#006F8E;}
	.st2{fill:#545FA8;}
	.st3{fill:#016678;}
	.st4{fill:url(#SVGID_1_);}
	.st5{fill:url(#SVGID_2_);}
	.st6{fill:#FFFFFF;}
</style>
<g>
	<g>
		<path class="st1" d="M45.7,84.6l15.8-19.5l0,0l7.8-9.7c0.2-0.3,0.1-0.7-0.3-0.7L2.7,49.5c-0.1,0-0.2-0.1-0.3-0.2
			C0.8,55,0,60.9,0,67c0,37,30,67,67,67c30.6,0,56.5-20.6,64.4-48.7l-85.4,0C45.6,85.4,45.4,84.9,45.7,84.6z"/>
		<path class="st1" d="M87.9,48.6c0.4,0,0.6,0.4,0.3,0.7L72.4,68.8l0,0l-7.8,9.7c-0.2,0.3-0.1,0.7,0.3,0.7l66.8,5.2
			C133.2,78.9,134,73,134,67c0-37-30-67-67-67C36.3,0,10.5,20.6,2.5,48.7c0.1,0,0.1-0.1,0.2-0.1L87.9,48.6z"/>
	</g>
</g>
</svg>
